<?xml version="1.0" encoding="utf-8"?>
<!-- Generator: Adobe Illustrator 25.4.1, SVG Export Plug-In . SVG Version: 6.00 Build 0)  -->
<svg version="1.1" id="Layer_1" xmlns="http://www.w3.org/2000/svg" xmlns:xlink="http://www.w3.org/1999/xlink" x="0px" y="0px"
	 viewBox="0 0 260 260" style="enable-background:new 0 0 260 260;" xml:space="preserve">
<style type="text/css">
	.st0{fill:#FF00B8;stroke:#CDEF0E;stroke-width:10.2459;}
	.st1{fill:#FFFFFF;}
	.st2{fill:#1D1A1A;}
</style>
<g>
	<path class="st0" d="M20.7,5h218.6C248,5,255,12,255,20.7v218.6c0,8.7-7,15.7-15.7,15.7H20.7C12,255,5,248,5,239.3V20.7
		C5,12,12,5,20.7,5z"/>
	<g>
		<path class="st1" d="M99.9,97.1c-0.7,0-0.7,0.7-1.3,1.2c-0.9,0.9-5.7,2.9-9.2,2.9c-1.2,0-2.2-0.1-3-0.7
			c3.8-10.4,6.4-19.8,6.4-19.8c3.1-10.4,0.1-12.8-3.4-12.8c-11.9,0-18.9,25.4-12.5,35.5C73.1,112,69.3,119,66.6,119
			c-4.4,0,4-33.3,4.4-35.5c1.1-4.4-7.7-10.1-11.3-10.1c-1.6,0-2.1,1.1-2.2,1.8c-0.4,1.7,1.3,2.2,0.4,5.9c-0.7,3.2-6.4,28-7.4,32.6
			c-1.3,5.5,11.2,16.3,17.4,16.3c5.1,0,10.9-10.8,15.5-22.2c9.2,1.7,18.5-4.9,18.5-8.1C102,98.7,100.9,97.1,99.9,97.1z M110.6,67.1
			h5c1.6,0,3-1,3.4-2.4l3.4-10.3c0.7-2.1-0.7-4.1-2.9-4.1h-8.2c-1.9,0-3.6,1.7-3.7,3.6L107.5,64C107.5,65.7,108.8,67.1,110.6,67.1z
			 M124.1,97.3c-1.3,0-0.7,1.2-1.9,3.1c-3.7,6-11.7,18.6-14,18.6c-0.8,0-0.6-1.3-0.1-3.4c1.1-4.9,7.4-32,7.4-32.1
			c1-4.4-7.7-10.1-11.3-10.1c-1.7,0-2.2,1.1-2.3,1.8c-0.3,1.7,1.3,2.2,0.6,5.9l-0.7,2.9c0,0-6.5,28.3-7.5,32.5
			c-1.1,5.1,6,13.5,11.1,13.5c6.1,0,22.4-27,22.4-30.1C127.8,98.3,125.7,97.3,124.1,97.3z M148,97.3c-1.3,0-0.7,1.2-1.9,3.1
			c-3.7,6-11.7,18.6-14,18.6c-0.8,0-0.6-1.3-0.1-3.4c1.1-4.8,11.7-50.4,11.7-50.5c1.1-4.4-7.7-10.2-11.3-10.2
			c-1.6,0-2.1,1.1-2.2,1.9c-0.4,1.6,1.3,2.2,0.4,5.9c-0.2,0.9-11.3,49.3-12.4,53.8c-1.1,5.1,6,13.5,11.1,13.5
			c6.1,0,22.4-27,22.4-30.1C151.6,98.3,149.5,97.3,148,97.3z M172.3,97.3c-1.3,0-0.7,1.2-1.9,3.1c-3.7,6-11.7,18.6-14,18.6
			c-0.8,0-0.6-1.3-0.1-3.4c1.1-4.8,11.7-50.4,11.7-50.5c1.1-4.4-7.7-10.2-11.3-10.2c-1.6,0-2.1,1.1-2.2,1.9
			c-0.4,1.6,1.3,2.2,0.4,5.9c-0.2,0.9-11.3,49.3-12.4,53.8c-1.1,5.1,6,13.5,11.1,13.5c6.1,0,22.4-27,22.4-30.1
			C175.9,98.3,173.8,97.3,172.3,97.3z M212.9,96.6c-0.8,0-0.4,1-1.8,2.6c-4.9,5.9-15.3,19.9-24.9,19.9c-6.2,0-6.2-7.1-3.8-15.2
			c2.6,0.8,6.1,1.1,7.4,1.1c6.3,0,17.1-16.6,17.1-22.8c0-4.2-11.8-10.1-17.9-10.1c-9.1,0-19,27.1-21.5,38.4
			c-1.3,5.9,8.5,19.5,15.2,19.5c11.1,0,33.1-26.3,33.1-30.5C215.8,97.9,214.1,96.6,212.9,96.6z M196.5,80.4
			c4.4,0-4.9,19.6-10.8,19.6C180.4,100,193.6,80.4,196.5,80.4z"/>
		<path class="st2" d="M98.6,98.4L92,90.5l-0.4,0.3l-0.3,0.3L98.6,98.4z M86.4,100.6l-9.6-3.5l-2.6,7.3l6.3,4.5L86.4,100.6z
			 M92.8,80.8L83,77.9l0,0.1l0,0.1L92.8,80.8z M76.8,103.6l9.4,4.1l2.1-4.9l-2.9-4.6L76.8,103.6z M71,83.5L61.1,81L61,81.2l0,0.2
			L71,83.5z M57.5,75.2l9.9,2.6l0.1-0.5l0.1-0.5L57.5,75.2z M57.9,81.1l-10-2.4l0,0.2l0,0.2L57.9,81.1z M50.5,113.7l10,2.4l0-0.1
			l0-0.1L50.5,113.7z M83.5,107.8l1.8-10.1l-8.2-1.5l-3.1,7.7L83.5,107.8z M99.9,86.9c-2.1,0-4.2,0.6-6.2,1.9
			c-1.7,1.1-2.6,2.5-2.9,2.8C90,92.9,91,91.3,92,90.5l13.1,15.7c1-0.8,1.6-1.6,2.1-2.2c0.2-0.3,0.4-0.5,0.4-0.6c0.1-0.2,0-0.1,0,0
			c-0.1,0.1-0.9,1.3-2.3,2.3c-0.8,0.5-1.7,1-2.7,1.3c-1,0.3-1.9,0.4-2.7,0.4V86.9z M91.3,91.1c0.4-0.4,0.7-0.6,0.9-0.8
			c0.2-0.1,0.3-0.2,0.4-0.3c0.1-0.1,0.2-0.1,0.1,0c-0.2,0.1-0.6,0.3-1.1,0.5c-0.5,0.2-1,0.3-1.5,0.4C89.6,91,89.3,91,89.3,91v20.5
			c3.4,0,6.7-0.9,9-1.7c1.2-0.4,2.4-0.9,3.5-1.4c0.7-0.3,2.5-1.3,4-2.8L91.3,91.1z M89.3,91c-0.4,0-0.2,0,0.3,0.1
			c0.5,0.1,1.6,0.4,2.7,1.2l-11.9,16.7c3.6,2.6,7.6,2.6,9,2.6V91z M96,104.1c2-5.4,3.6-10.5,4.8-14.2c0.6-1.9,1-3.4,1.4-4.5
			c0.2-0.5,0.3-1,0.4-1.3c0-0.1,0.1-0.3,0.1-0.3c0,0,0-0.1,0-0.1c0,0,0,0,0,0c0,0,0,0,0,0c0,0,0,0,0,0c0,0,0,0,0,0c0,0,0,0-9.9-2.8
			S82.9,78,82.9,78v0v0c0,0,0,0,0,0c0,0,0,0,0,0c0,0,0,0,0,0.1c0,0.1,0,0.2-0.1,0.3c-0.1,0.3-0.2,0.6-0.3,1.1
			c-0.3,1-0.7,2.4-1.3,4.2c-1.1,3.5-2.7,8.3-4.5,13.4L96,104.1z M102.6,83.8c1.7-5.6,2.7-11.9,0.4-17.2c-1.3-3.1-3.6-5.5-6.4-7
			c-2.7-1.4-5.3-1.7-7.2-1.7v20.5c-0.1,0-1.1,0-2.3-0.6c-1.4-0.7-2.4-1.9-2.9-3.1c-0.4-1-0.3-1.4-0.3-0.7c0,0.7-0.2,2-0.9,4.1
			L102.6,83.8z M89.3,57.8c-6.9,0-12.2,3.7-15.6,7.6c-3.4,3.9-5.8,8.7-7.3,13.5c-1.5,4.8-2.4,10-2.3,15c0.1,4.8,1,10.4,3.9,15.1
			l17.4-10.9c-0.2-0.3-0.8-1.7-0.8-4.5c0-2.6,0.4-5.6,1.3-8.5c0.9-2.9,2.1-5,3.2-6.2c1.1-1.2,1.1-0.6,0.2-0.6V57.8z M67.4,99.5
			c-1.8,4.1-3.4,7.4-4.8,9.5c-0.7,1.1-1.1,1.5-1.1,1.5c0,0,0.4-0.4,1-0.7c0.7-0.4,2.1-1,4-1v20.5c4.9,0,8.2-3,9.4-4.2
			c1.6-1.6,2.9-3.5,4-5.2c2.2-3.5,4.3-7.9,6.2-12.3L67.4,99.5z M66.6,108.8c3.5,0,6.2,1.9,7.5,3.8c1.1,1.5,1.4,2.8,1.4,2.9
			c0.1,0.5,0,0.2,0.1-1.1c0.1-2.5,0.7-6.1,1.5-10.4c0.8-4.1,1.7-8.3,2.5-11.7c0.7-3,1.4-6,1.6-6.8l-20.1-4c0,0,0,0-0.1,0.5
			c-0.1,0.3-0.2,0.8-0.3,1.4c-0.3,1.1-0.6,2.6-1,4.4c-0.8,3.5-1.8,8-2.6,12.5c-0.8,4.4-1.6,9.2-1.8,13c-0.1,1.8-0.1,4.2,0.3,6.5
			c0.2,1.1,0.8,3.1,2.2,5.1c1.7,2.3,4.8,4.5,8.9,4.5V108.8z M81,86c1.2-4.9-0.5-9-2-11.4c-1.6-2.5-3.6-4.5-5.4-5.9
			c-1.9-1.5-4-2.8-6.1-3.7c-1.8-0.8-4.6-1.9-7.7-1.9v20.5c-0.4,0-0.7,0-0.9-0.1c-0.2,0-0.3-0.1-0.3-0.1c0,0,0.1,0,0.4,0.2
			c0.6,0.3,1.3,0.7,1.9,1.2c0.3,0.2,0.5,0.4,0.7,0.6c0.1,0.2,0.1,0.2,0.1,0.1c-0.1-0.1-0.3-0.5-0.5-1.3c-0.2-0.8-0.3-1.9,0-3.2
			L81,86z M59.7,63.1c-3.5,0-6.7,1.4-9,3.8c-2.1,2.1-3,4.6-3.3,6.6l20.2,3.4c-0.2,1.3-0.8,2.9-2.2,4.3c-1.6,1.7-3.8,2.5-5.7,2.5
			V63.1z M47.6,72.5c-0.3,1.1-0.4,2.3-0.4,3.5c0,1.2,0.2,2.1,0.4,2.9c0.2,0.7,0.4,1.3,0.5,1.5c0,0.1,0,0.1,0.1,0.2c0,0,0,0.1,0,0.1
			c0,0.1,0,0.1,0,0C48.1,80.5,48,80,48,79.4c0-0.6,0-0.9,0-0.8l19.9,4.8c0.4-1.7,0.6-3.5,0.5-5.2c-0.1-1.8-0.5-3.2-0.8-4.2
			c-0.1-0.2-0.1-0.4-0.2-0.6c0-0.1,0-0.1-0.1-0.2c0,0,0-0.1,0-0.1c0-0.1,0,0.1,0.1,0.5c0.1,0.4,0.2,1,0.3,1.8c0,0.8-0.1,1.6-0.3,2.3
			L47.6,72.5z M47.9,79c-0.7,3.6-6.2,27-7.4,32.6l20,4.3c0.8-3.8,6.9-29.9,7.5-32.7L47.9,79z M40.5,111.3c-1.3,5.4,1,10.1,2.5,12.6
			c1.7,2.9,4.1,5.5,6.5,7.6c2.4,2.2,5.2,4.2,8,5.7c2.6,1.4,6.3,3,10.4,3v-20.5c0.6,0,0.9,0.1,0.6,0c-0.2-0.1-0.7-0.2-1.3-0.6
			c-1.2-0.7-2.7-1.7-4-2.9c-1.4-1.2-2.3-2.4-2.7-3.1c-0.2-0.3-0.1-0.3-0.1,0c0.1,0.3,0.3,1.4,0,2.8L40.5,111.3z M67.9,140.2
			c4.9,0,8.6-2.5,10.7-4.5c2.3-2,4.2-4.6,5.8-7c3.2-4.9,6.1-11.2,8.5-17.1l-19-7.7c-2.2,5.5-4.6,10.4-6.7,13.7
			c-1.1,1.7-1.9,2.5-2.2,2.9c-0.5,0.4,0.5-0.7,2.9-0.7V140.2z M81.6,117.9c7.4,1.3,14.4-0.6,19.3-3.2c2.5-1.3,4.9-3,6.8-4.9
			c0.9-1,2-2.2,2.8-3.6c0.8-1.4,1.7-3.6,1.7-6.4H91.8c0-2,0.7-3.3,0.9-3.7c0.3-0.5,0.5-0.7,0.4-0.6c-0.1,0.1-0.7,0.6-1.7,1.1
			c-2,1.1-4.3,1.5-6.1,1.2L81.6,117.9z M112.2,99.7c0-3.6-1.7-6.4-2.9-8c-1-1.2-4.1-4.8-9.5-4.8v20.5c-2.4,0-4.1-0.9-4.9-1.4
			c-0.9-0.6-1.4-1.2-1.7-1.6c-0.3-0.4-0.6-0.9-0.9-1.5c-0.2-0.5-0.6-1.6-0.6-3.1H112.2z M119,64.6l-9.7-3.2l0,0.1l0,0.1L119,64.6z
			 M122.5,54.3l9.7,3.2l0-0.1l0-0.1L122.5,54.3z M107.7,53.7l-10.2-0.6l0,0.2l0,0.2L107.7,53.7z M107.5,64l-10.2-0.2l0,0.1V64H107.5
			z M122.2,100.4l-8.6-5.6l-0.1,0.1l-0.1,0.1L122.2,100.4z M108.1,115.6l-10-2.3l0,0.1l0,0.1L108.1,115.6z M115.6,83.5l-10-2.2
			l-0.2,1.1v1.1H115.6z M101.9,75.2l10,2l0-0.2l0-0.2L101.9,75.2z M102.5,81.1l10,2.3l0-0.1l0-0.1L102.5,81.1z M101.8,83.9l10,2.3
			l0,0l0,0L101.8,83.9z M94.3,116.5l-10-2.4l0,0.1l0,0.1L94.3,116.5z M110.6,77.3h5V56.8h-5V77.3z M115.6,77.3
			c5.7,0,11.4-3.6,13.2-9.7l-19.6-6c1-3.2,3.8-4.8,6.4-4.8V77.3z M128.7,67.9l3.4-10.3l-19.4-6.5l-3.4,10.3L128.7,67.9z M132.2,57.4
			c1.2-3.9,0.7-8.2-1.7-11.8c-2.5-3.6-6.6-5.7-11-5.7v20.5c-2.2,0-4.5-1.1-5.9-3.2c-1.4-2-1.5-4.3-1-6.1L132.2,57.4z M119.6,39.9
			h-8.2v20.5h8.2V39.9z M111.4,39.9c-7.7,0-13.5,6.3-13.9,13.2l20.5,1.2c-0.1,1.9-0.9,3.3-1.9,4.2c-1,0.9-2.6,1.9-4.7,1.9V39.9z
			 M97.5,53.5l-0.2,10.2l20.5,0.4l0.2-10.2L97.5,53.5z M117.7,64H97.2c0,7.4,5.9,13.4,13.4,13.4V56.8 M124.1,87
			c-1.9,0-5.2,0.5-7.9,3.2c-2.2,2.2-2.8,4.8-2.9,5.1c-0.3,1.2-0.1,0.1,0.4-0.5l17.2,11.1c1.7-2.6,2.2-5.2,2.2-5c0,0-0.1,0.5-0.4,1.1
			c-0.3,0.6-0.9,1.7-1.9,2.7c-1.1,1.1-2.4,1.9-3.7,2.3c-1.2,0.4-2.2,0.5-2.8,0.5V87z M113.5,95c-1.8,3-4.6,7.4-7.1,11
			c-1.3,1.9-2.4,3.3-3.1,4.1c-0.4,0.4-0.5,0.5-0.3,0.3c0.1-0.1,0.5-0.4,1.2-0.7c0.6-0.3,2-0.9,4.1-0.9v20.5c2.4,0,4.2-0.8,5.1-1.2
			c1-0.5,1.8-1.1,2.4-1.6c1.1-0.9,2.1-1.9,2.8-2.7c1.5-1.7,3.1-3.9,4.6-5.9c2.9-4.2,6-9.1,7.8-12.1L113.5,95z M108.3,108.8
			c1.4,0,3.2,0.3,5,1.4c1.8,1.1,3,2.6,3.7,3.9c1.1,2.2,1,4.1,1,4.3c0,0.5-0.1,0.7,0.2-0.6l-20.1-4.2c-0.2,0.8-0.6,2.6-0.6,4.4
			c0,0.7-0.1,3.1,1.2,5.6c0.8,1.5,2,3.1,4,4.3c2,1.2,3.9,1.5,5.5,1.5V108.8z M118.1,117.8c0.5-2.4,2.4-10.4,4.1-17.8
			c0.9-3.7,1.7-7.2,2.3-9.9c0.3-1.3,0.6-2.4,0.7-3.2c0.1-0.4,0.2-0.7,0.2-0.9c0-0.1,0-0.2,0.1-0.3c0,0,0-0.1,0-0.2c0,0,0-0.1,0-0.2
			c0,0,0-0.2,0.1-0.3c0-0.1,0-0.3,0.1-0.4c0-0.2,0.1-0.8,0.1-1.2h-20.5c0-0.4,0-1,0.1-1.2c0-0.1,0-0.3,0.1-0.4c0-0.1,0-0.3,0.1-0.3
			c0-0.1,0-0.2,0-0.2c0,0,0-0.1,0-0.1c0,0,0,0.1,0,0.2c0,0.2-0.1,0.5-0.2,0.9c-0.2,0.8-0.4,1.8-0.7,3.1c-0.6,2.6-1.4,6.2-2.3,9.9
			c-1.7,7.4-3.6,15.4-4.1,17.9L118.1,117.8z M125.6,85.7c1.1-4.8-0.7-8.8-2.2-11.2c-1.5-2.4-3.6-4.4-5.4-5.8c-1.9-1.5-4-2.8-6-3.7
			c-1.8-0.8-4.6-1.9-7.7-1.9v20.5c-0.4,0-0.7,0-0.9-0.1c-0.2,0-0.3-0.1-0.3-0.1c0,0,0.1,0,0.4,0.2c0.6,0.3,1.3,0.7,1.9,1.2
			c0.3,0.2,0.5,0.4,0.7,0.6c0.2,0.2,0.2,0.2,0.1,0.1c-0.1-0.1-0.3-0.5-0.5-1.2c-0.2-0.7-0.3-1.8,0-3.1L125.6,85.7z M104.3,63.1
			c-3.3,0-6.6,1.2-9,3.6c-2.2,2.2-3.1,4.7-3.4,6.7l20.2,3.4c-0.2,1.3-0.8,3-2.3,4.4c-1.7,1.7-3.8,2.4-5.5,2.4V63.1z M91.9,73.2
			c-0.5,2.4-0.2,4.4,0.2,5.9c0.2,0.6,0.4,1.2,0.5,1.4c0.1,0.2,0.1,0.1,0.1,0.2c0,0,0,0,0,0c-0.1-0.2-0.2-0.6-0.2-1.2
			c0-0.5,0-0.7,0-0.6l20,4.3c0.4-1.7,0.5-3.4,0.4-5.1c-0.1-1.7-0.5-3.1-0.8-4.1c-0.1-0.4-0.3-0.8-0.3-0.9c-0.1-0.1,0,0,0.1,0.3
			c0.2,0.8,0.4,2.2,0.1,3.7L91.9,73.2z M92.5,78.7l-0.7,2.9l20,4.6l0.7-2.9L92.5,78.7z M101.8,83.9c-10-2.3-10-2.3-10-2.3
			c0,0,0,0,0,0c0,0,0,0,0,0c0,0,0,0,0,0c0,0,0,0,0,0.1c0,0.1,0,0.1-0.1,0.2c0,0.2-0.1,0.5-0.2,0.9c-0.2,0.8-0.4,1.9-0.8,3.3
			c-0.6,2.7-1.5,6.4-2.4,10.2c-1.8,7.6-3.6,15.7-4.1,17.8l19.9,4.7c0.5-2.1,2.4-10.3,4.2-17.9c0.9-3.8,1.7-7.5,2.4-10.2
			c0.3-1.4,0.6-2.5,0.8-3.3c0.1-0.4,0.2-0.7,0.2-0.9c0-0.1,0-0.2,0.1-0.2c0,0,0,0,0-0.1c0,0,0,0,0,0c0,0,0,0,0,0c0,0,0,0,0,0
			C111.8,86.2,111.8,86.2,101.8,83.9z M84.3,114.3c-0.9,4,0,7.6,1,10.2c1.1,2.7,2.6,5.2,4.3,7.2c1.7,2.1,3.8,4,6.2,5.6
			c2.3,1.4,5.6,3,9.5,3v-20.5c0.8,0,1.3,0.2,1.4,0.2c0.2,0.1,0.2,0.1,0,0c-0.1-0.1-0.4-0.3-0.6-0.5c-0.3-0.2-0.5-0.5-0.8-0.9
			c-0.3-0.3-0.5-0.6-0.7-0.9c-0.2-0.3-0.3-0.5-0.3-0.7c-0.1-0.1,0-0.1,0,0.1c0,0.2,0.1,0.8-0.1,1.5L84.3,114.3z M105.4,140.2
			c4.1,0,7.3-2.1,8.7-3.1c1.8-1.3,3.5-2.9,4.9-4.4c2.9-3.1,5.8-7.1,8.4-10.8c2.6-3.8,5-7.8,6.8-11c0.9-1.6,1.7-3.2,2.3-4.6
			c0.3-0.7,0.6-1.5,0.9-2.3c0.2-0.5,0.7-2.1,0.7-4h-20.5c0-0.9,0.1-1.6,0.2-1.8c0.1-0.3,0.1-0.5,0.1-0.5c0-0.1,0,0-0.2,0.4
			c-0.3,0.7-0.8,1.7-1.5,3c-1.5,2.7-3.5,6-5.8,9.4c-2.3,3.4-4.6,6.4-6.5,8.4c-1,1-1.6,1.6-1.8,1.8c-0.6,0.4,0.7-0.8,3.3-0.8V140.2z
			 M138,99.9c0-5.7-3.6-9.1-6-10.6c-2.4-1.5-5.2-2.3-7.9-2.3v20.5c-1.1,0-2.1-0.3-3.1-0.9c-0.9-0.6-3.5-2.7-3.5-6.7H138z
			 M146.1,100.4l-8.6-5.6l-0.1,0.1l-0.1,0.1L146.1,100.4z M132,115.6l-10-2.3l0,0.1l0,0.1L132,115.6z M143.6,65.1l-9.9-2.5l-0.3,1.2
			v1.3H143.6z M130.1,56.7l9.9,2.8l0.2-0.7l0.1-0.7L130.1,56.7z M130.5,62.6l9.9,2.5l0,0l0,0L130.5,62.6z M118.1,116.5l-10-2.4
			l0,0.1l0,0.1L118.1,116.5z M148,87c-1.9,0-5.2,0.5-7.9,3.2c-2.2,2.2-2.8,4.8-2.9,5.1c-0.3,1.2-0.1,0.1,0.4-0.5l17.2,11.1
			c1.7-2.6,2.2-5.2,2.2-5c0,0-0.1,0.5-0.4,1.1c-0.3,0.6-0.9,1.7-1.9,2.7c-1.1,1.1-2.4,1.9-3.7,2.3c-1.2,0.4-2.2,0.5-2.8,0.5V87z
			 M137.3,95c-1.8,3-4.6,7.4-7.1,11c-1.3,1.9-2.4,3.3-3.1,4.1c-0.4,0.4-0.5,0.5-0.3,0.3c0.1-0.1,0.5-0.4,1.2-0.7
			c0.6-0.3,2-0.9,4.1-0.9v20.5c2.4,0,4.2-0.8,5.1-1.2c1-0.5,1.8-1.1,2.4-1.6c1.1-0.9,2.1-1.9,2.8-2.7c1.5-1.7,3.1-3.9,4.6-5.9
			c2.9-4.2,6-9.1,7.8-12.1L137.3,95z M132.1,108.8c1.4,0,3.2,0.3,5,1.4c1.8,1.1,3,2.6,3.7,3.9c1.1,2.2,1,4.1,1,4.3
			c0,0.5-0.1,0.7,0.2-0.6l-20.1-4.2c-0.2,0.8-0.6,2.6-0.6,4.4c0,0.7-0.1,3.1,1.2,5.6c0.8,1.5,2,3.1,4,4.3c2,1.2,3.9,1.5,5.5,1.5
			V108.8z M142,117.9c0.6-2.4,3.5-15,6.2-27c1.4-6,2.7-11.9,3.7-16.2c0.5-2.2,0.9-4,1.2-5.3c0.1-0.6,0.3-1.1,0.3-1.5
			c0-0.2,0.1-0.3,0.1-0.4c0-0.1,0-0.1,0-0.2c0,0,0-0.1,0-0.2c0,0,0-0.1,0-0.2c0-0.1,0-0.2,0.1-0.3c0-0.2,0.1-0.9,0.1-1.4h-20.5
			c0-0.5,0.1-1.2,0.1-1.4c0-0.1,0-0.3,0.1-0.3c0-0.1,0-0.2,0-0.2c0-0.1,0-0.1,0-0.1c0,0,0,0,0,0c0,0.1,0,0.2-0.1,0.4
			c-0.1,0.3-0.2,0.8-0.3,1.5c-0.3,1.3-0.7,3.1-1.2,5.2c-1,4.4-2.4,10.2-3.7,16.2c-2.8,12-5.7,24.6-6.2,27L142,117.9z M153.6,67.6
			c1.2-4.9-0.5-9-2-11.4c-1.5-2.5-3.6-4.5-5.4-5.9c-1.9-1.5-4-2.8-6.1-3.8c-1.8-0.8-4.7-1.9-7.8-1.9v20.5c-0.4,0-0.7,0-0.9-0.1
			c-0.2,0-0.3-0.1-0.3-0.1c0,0,0.1,0,0.4,0.2c0.6,0.3,1.3,0.7,1.9,1.2c0.3,0.2,0.5,0.4,0.7,0.6c0.2,0.2,0.2,0.2,0.1,0.1
			c-0.1-0.1-0.3-0.5-0.5-1.2c-0.2-0.8-0.3-1.9,0-3.2L153.6,67.6z M132.3,44.6c-3.5,0-6.8,1.4-9.2,3.9c-2.1,2.3-2.9,4.9-3.2,6.7
			l20.3,2.9c-0.2,1.1-0.6,2.8-2.1,4.3c-1.7,1.8-3.9,2.6-5.9,2.6V44.6z M120.3,53.9c-0.3,1.2-0.5,2.4-0.5,3.6c0,1.2,0.2,2.2,0.4,2.9
			c0.2,0.7,0.4,1.2,0.5,1.5c0.1,0.2,0,0.1,0.1,0.3c0,0,0,0,0,0c-0.1-0.2-0.2-0.6-0.2-1.2c0-0.5,0-0.8,0-0.8l19.9,4.8
			c0.4-1.8,0.6-3.5,0.5-5.2c-0.1-1.8-0.5-3.2-0.8-4.2c-0.1-0.4-0.3-0.8-0.3-0.9c-0.1-0.1,0,0.1,0.1,0.4c0.1,0.4,0.2,1,0.3,1.9
			c0,0.9-0.1,1.7-0.3,2.5L120.3,53.9z M120.6,60.1c-0.1,0.5-11.5,50.1-12.4,53.9l19.9,4.9c0.6-2.4,3.7-15.7,6.6-28.4
			c1.5-6.4,2.9-12.7,4-17.4c0.5-2.4,1-4.3,1.3-5.8c0.3-1.5,0.5-2.2,0.5-2.2L120.6,60.1z M108.1,114.3c-0.9,4,0,7.6,1,10.2
			c1.1,2.7,2.6,5.2,4.3,7.2c1.7,2.1,3.8,4,6.2,5.6c2.3,1.4,5.6,3,9.5,3v-20.5c0.8,0,1.3,0.2,1.4,0.2c0.2,0.1,0.2,0.1,0,0
			c-0.1-0.1-0.4-0.3-0.6-0.5c-0.3-0.2-0.5-0.5-0.8-0.9c-0.3-0.3-0.5-0.6-0.7-0.9c-0.2-0.3-0.3-0.5-0.3-0.7c-0.1-0.1,0-0.1,0,0.1
			c0,0.2,0.1,0.8-0.1,1.5L108.1,114.3z M129.2,140.2c4.1,0,7.3-2.1,8.7-3.1c1.8-1.3,3.5-2.9,4.9-4.4c2.9-3.1,5.8-7.1,8.4-10.8
			c2.6-3.8,5-7.8,6.8-11c0.9-1.6,1.7-3.2,2.3-4.6c0.3-0.7,0.6-1.5,0.9-2.3c0.2-0.5,0.7-2.1,0.7-4h-20.5c0-0.9,0.1-1.6,0.2-1.8
			c0.1-0.3,0.1-0.5,0.1-0.5c0-0.1,0,0-0.2,0.4c-0.3,0.7-0.8,1.7-1.5,3c-1.5,2.7-3.5,6-5.8,9.4c-2.3,3.4-4.6,6.4-6.5,8.4
			c-1,1-1.6,1.6-1.8,1.8c-0.6,0.4,0.7-0.8,3.3-0.8V140.2z M161.9,99.9c0-5.7-3.6-9.1-6-10.6c-2.4-1.5-5.2-2.3-7.9-2.3v20.5
			c-1.1,0-2.1-0.3-3.1-0.9c-0.9-0.6-3.5-2.7-3.5-6.7H161.9z M170.4,100.4l-8.6-5.6l-0.1,0.1l-0.1,0.1L170.4,100.4z M156.3,115.6
			l-10-2.3l0,0.1l0,0.1L156.3,115.6z M167.9,65.1l-9.9-2.5l-0.3,1.2v1.3H167.9z M154.4,56.7l9.9,2.8l0.2-0.7l0.1-0.7L154.4,56.7z
			 M154.8,62.6l9.9,2.5l0,0l0,0L154.8,62.6z M142.4,116.5l-10-2.4l0,0.1l0,0.1L142.4,116.5z M172.3,87c-1.9,0-5.2,0.5-7.9,3.2
			c-2.2,2.2-2.8,4.8-2.9,5.1c-0.3,1.2-0.1,0.1,0.4-0.5l17.2,11.1c1.7-2.6,2.2-5.2,2.2-5c0,0-0.1,0.5-0.4,1.1
			c-0.3,0.6-0.9,1.7-1.9,2.7c-1.1,1.1-2.4,1.9-3.7,2.3c-1.2,0.4-2.2,0.5-2.8,0.5V87z M161.6,95c-1.8,3-4.6,7.4-7.1,11
			c-1.3,1.9-2.4,3.3-3.1,4.1c-0.4,0.4-0.5,0.5-0.3,0.3c0.1-0.1,0.5-0.4,1.2-0.7c0.6-0.3,2-0.9,4.1-0.9v20.5c2.4,0,4.2-0.8,5.1-1.2
			c1-0.5,1.8-1.1,2.4-1.6c1.1-0.9,2.1-1.9,2.8-2.7c1.5-1.7,3.1-3.9,4.6-5.9c2.9-4.2,6-9.1,7.8-12.1L161.6,95z M156.4,108.8
			c1.4,0,3.2,0.3,5,1.4c1.8,1.1,3,2.6,3.7,3.9c1.1,2.2,1,4.1,1,4.3c0,0.5-0.1,0.7,0.2-0.6l-20.1-4.2c-0.2,0.8-0.6,2.6-0.6,4.4
			c0,0.7-0.1,3.1,1.2,5.6c0.8,1.5,2,3.1,4,4.3c2,1.2,3.9,1.5,5.5,1.5V108.8z M166.3,117.9c0.6-2.4,3.5-15,6.2-27
			c1.4-6,2.7-11.9,3.7-16.2c0.5-2.2,0.9-4,1.2-5.3c0.1-0.6,0.3-1.1,0.3-1.5c0-0.2,0.1-0.3,0.1-0.4c0-0.1,0-0.1,0-0.2
			c0,0,0-0.1,0-0.2c0,0,0-0.1,0-0.2c0-0.1,0-0.2,0.1-0.3c0-0.2,0.1-0.9,0.1-1.4h-20.5c0-0.5,0.1-1.2,0.1-1.4c0-0.1,0-0.3,0.1-0.3
			c0-0.1,0-0.2,0-0.2c0-0.1,0-0.1,0-0.1c0,0,0,0,0,0c0,0.1,0,0.2-0.1,0.4c-0.1,0.3-0.2,0.8-0.3,1.5c-0.3,1.3-0.7,3.1-1.2,5.2
			c-1,4.4-2.4,10.2-3.7,16.2c-2.8,12-5.7,24.6-6.2,27L166.3,117.9z M177.9,67.6c1.2-4.8-1.5-10.4-2-11.3c0,0,0,0,0-0.1
			c-1.5-2.5-3.6-4.4-5.4-5.9c-1.9-1.5-4-2.8-6.1-3.8c-1.8-0.8-4.7-1.9-7.8-1.9v20.5c-0.4,0-0.7,0-0.9-0.1c-0.2,0-0.3-0.1-0.3-0.1
			c0,0,0.1,0,0.4,0.2c0.6,0.3,1.3,0.7,1.9,1.2c0.3,0.2,0.5,0.4,0.7,0.6c0.2,0.2,0.2,0.2,0.1,0.1c-0.1-0.1-0.3-0.5-0.5-1.2
			c-0.2-0.8-0.3-1.9,0-3.2L177.9,67.6z M156.6,44.6c-3.5,0-6.8,1.4-9.2,3.9c-2.1,2.3-2.9,4.9-3.2,6.7l20.3,2.9
			c-0.2,1.1-0.6,2.8-2.1,4.3c-1.7,1.8-3.9,2.6-5.9,2.6V44.6z M144.5,53.9c-0.3,1.2-0.5,2.4-0.5,3.6c0,1.2,0.2,2.2,0.4,2.9
			c0.2,0.7,0.4,1.2,0.5,1.5c0.1,0.2,0,0.1,0.1,0.3c0,0,0,0,0,0c-0.1-0.2-0.2-0.6-0.2-1.2c0-0.5,0-0.8,0-0.8l19.9,4.8
			c0.4-1.8,0.6-3.5,0.5-5.2c-0.1-1.8-0.5-3.2-0.8-4.2c-0.1-0.4-0.3-0.8-0.3-0.9c-0.1-0.1,0,0.1,0.1,0.4c0.1,0.4,0.2,1,0.3,1.9
			c0,0.9-0.1,1.7-0.3,2.5L144.5,53.9z M144.9,60.1c-0.1,0.5-11.5,50.1-12.4,53.9l19.9,4.9c0.6-2.4,3.7-15.7,6.6-28.4
			c1.5-6.4,2.9-12.7,4-17.4c0.5-2.4,1-4.3,1.3-5.8c0.3-1.5,0.5-2.2,0.5-2.2L144.9,60.1z M132.4,114.3c-0.9,4,0,7.6,1,10.2
			c1.1,2.7,2.6,5.2,4.3,7.2c1.7,2.1,3.8,4,6.2,5.6c2.3,1.4,5.6,3,9.5,3v-20.5c0.8,0,1.3,0.2,1.4,0.2c0.2,0.1,0.2,0.1,0,0
			c-0.1-0.1-0.4-0.3-0.6-0.5c-0.3-0.2-0.5-0.5-0.8-0.9c-0.3-0.3-0.5-0.6-0.7-0.9c-0.2-0.3-0.3-0.5-0.3-0.7c-0.1-0.1,0-0.1,0,0.1
			c0,0.2,0.1,0.8-0.1,1.5L132.4,114.3z M153.5,140.2c4.1,0,7.3-2.1,8.7-3.1c1.8-1.3,3.5-2.9,4.9-4.4c2.9-3.1,5.8-7.1,8.4-10.8
			c2.6-3.8,5-7.8,6.8-11c0.9-1.6,1.7-3.2,2.3-4.6c0.3-0.7,0.6-1.5,0.9-2.3c0.2-0.5,0.7-2.1,0.7-4h-20.5c0-0.9,0.1-1.6,0.2-1.8
			c0.1-0.3,0.1-0.5,0.1-0.5c0-0.1,0,0-0.2,0.4c-0.3,0.7-0.8,1.7-1.5,3c-1.5,2.7-3.5,6-5.8,9.4c-2.3,3.4-4.6,6.4-6.5,8.4
			c-1,1-1.6,1.6-1.8,1.8c-0.6,0.4,0.7-0.8,3.3-0.8V140.2z M186.2,99.9c0-5.7-3.6-9.1-6-10.6c-2.4-1.5-5.2-2.3-7.9-2.3v20.5
			c-1.1,0-2.1-0.3-3.1-0.9c-0.9-0.6-3.5-2.7-3.5-6.7H186.2z M211.1,99.1l-7.8-6.7l-0.1,0.1l-0.1,0.1L211.1,99.1z M182.4,103.8l3-9.8
			l-9.8-3l-3,9.8L182.4,103.8z M167.6,110.5l10,2.3l0,0l0,0L167.6,110.5z M212.9,86.3c-1.2,0-2.8,0.2-4.4,0.9
			c-1.7,0.8-3,1.9-3.8,2.9c-0.8,1-1.3,1.9-1.5,2.3c-0.2,0.4-0.4,0.9-0.4,0.9c-0.1,0.2,0.2-0.4,0.6-1l15.6,13.3c0.8-1,1.5-1.9,2-2.9
			c0.5-0.9,0.8-1.6,0.8-1.8c0.1-0.2,0,0.1-0.2,0.3c-0.1,0.3-0.5,1-1.2,1.9c-0.8,0.9-1.9,1.9-3.5,2.6c-1.5,0.7-2.9,0.8-3.9,0.8V86.3z
			 M203.2,92.6c-2.8,3.3-6,7.6-9.9,11.3c-1.9,1.8-3.6,3.2-5,4c-1.5,0.9-2.1,0.9-2,0.9v20.5c4.9,0,9.1-1.8,12.4-3.7
			c3.3-2,6.3-4.5,8.9-6.9c5-4.8,9.4-10.4,11.5-13L203.2,92.6z M186.2,108.8c0.5,0,2,0.2,3.5,1.6c0.6,0.6,1,1.2,1.2,1.7
			c0.2,0.4,0.2,0.7,0.3,0.7c0,0,0-0.1,0-0.4c0-0.3,0-0.8,0.1-1.3c0.2-1.1,0.5-2.6,1-4.2l-19.6-5.9c-1.3,4.4-2.5,10.1-1.7,15.3
			c0.5,2.8,1.7,6.2,4.6,9.1c3.1,3,7,4,10.6,4V108.8z M179.5,113.6c3.7,1.1,8.3,1.6,10.4,1.6V94.7c0,0-0.2,0-0.6,0
			c-0.4,0-0.8-0.1-1.4-0.1c-1.1-0.1-2-0.3-2.5-0.5L179.5,113.6z M189.9,115.2c5.5,0,9.8-3.3,12.1-5.2c2.7-2.4,5.2-5.3,7.2-8.2
			c2.1-2.9,3.9-6.1,5.3-9.2c1.2-2.7,2.7-6.6,2.7-10.4h-20.5c0-0.8,0.1-0.3-0.9,1.9c-0.8,1.8-2,3.9-3.4,5.9c-1.4,2-2.9,3.6-3.9,4.6
			c-0.5,0.5-0.8,0.6-0.8,0.6c0,0,0.2-0.1,0.6-0.2c0.3-0.1,0.9-0.2,1.6-0.2V115.2z M217.2,82.2c0-5.5-3.5-9.2-5.1-10.8
			c-2.1-2-4.6-3.6-6.9-4.9c-4.4-2.4-10.6-4.7-16.1-4.7v20.5c0,0,0.2,0,0.6,0.1c0.4,0.1,1,0.2,1.7,0.4c1.3,0.4,2.8,1,4.1,1.7
			c1.4,0.7,2.2,1.4,2.5,1.7c0.2,0.1,0,0-0.3-0.5c-0.3-0.5-0.9-1.7-0.9-3.6H217.2z M189.1,61.8c-7.2,0-12.2,5-14.7,8.1
			c-3,3.6-5.6,8.2-7.7,12.6c-4.3,8.9-7.6,19.2-9.1,25.6l20,4.5c1.1-4.9,4-13.8,7.6-21.3c1.8-3.8,3.6-6.7,5-8.4
			c1.9-2.3,1.6-0.7-1.1-0.7V61.8z M157.6,108.2c-1,4.5,0.3,8.9,1.4,11.6c1.2,3.1,3.1,6.1,5.1,8.8c2,2.7,4.5,5.3,7.3,7.4
			c2.5,1.9,6.6,4.3,11.5,4.3v-20.5c0.5,0,0.8,0.1,1,0.1c0.2,0.1,0.3,0.1,0.4,0.1c0,0-0.2-0.1-0.6-0.4c-0.9-0.7-2-1.8-3.2-3.3
			c-1.1-1.5-1.9-3-2.4-4.1c-0.1-0.3-0.2-0.5-0.2-0.6c0-0.1,0-0.1,0-0.2c0,0,0,0,0,0c0,0,0,0,0,0c0,0,0,0,0,0c0,0,0,0,0,0
			c0,0,0,0,0,0c0,0,0,0,0,0.1c0,0.1,0,0.1,0,0.2c0,0.2,0,0.6-0.1,1.1L157.6,108.2z M182.8,140.2c6.1,0,11.9-3.3,15.7-6
			c4.3-3,8.6-6.9,12.3-10.8c3.7-3.9,7.1-7.9,9.7-11.4c1.3-1.7,2.4-3.5,3.3-5.1c0.4-0.8,0.9-1.8,1.3-2.8c0.3-0.8,0.9-2.6,0.9-4.7
			h-20.5c0-0.9,0.1-1.6,0.2-1.9c0.1-0.4,0.2-0.6,0.2-0.7c0.1-0.2,0.1-0.1-0.1,0.2c-0.3,0.6-1,1.6-2,3c-1.9,2.6-4.7,6-7.9,9.2
			c-3.2,3.3-6.5,6.2-9.4,8.2c-3.4,2.4-4.6,2.3-4,2.3V140.2z M226.1,99.5c0-4.7-2.6-8-4.5-9.7c-1.8-1.6-4.9-3.4-8.7-3.4v20.5
			c-1.5,0-2.5-0.4-3.2-0.6c-0.7-0.3-1.2-0.7-1.7-1.1c-0.7-0.6-2.4-2.5-2.4-5.7H226.1z M196.5,90.6c-1.7,0-3.9-0.5-5.9-2.1
			c-1.8-1.5-2.6-3.3-2.9-4.4c-0.5-1.8-0.2-3-0.3-2.5c-0.1,0.5-0.6,2-1.6,4c-1,1.9-2.1,3.6-3,4.6c-0.5,0.5-0.6,0.6-0.5,0.5
			c0.1-0.1,1.3-0.9,3.3-0.9v20.5c3.5,0,6.3-1.4,8-2.6c1.8-1.2,3.3-2.6,4.5-4c2.4-2.7,4.4-5.9,5.9-8.9c1.5-2.9,2.9-6.4,3.5-9.5
			c0.3-1.4,0.6-4.1-0.2-7c-0.5-1.6-1.5-3.8-3.7-5.6c-2.3-1.9-4.9-2.6-7.2-2.6V90.6z M185.8,89.8c1.2,0,3.3,0.3,5.3,1.8
			c2.1,1.5,3,3.5,3.4,5c0.4,1.3,0.3,2.3,0.2,2.7c0,0.4-0.1,0.6-0.1,0.6c0.1-0.5,0.8-2,2.2-4.3c1.3-2.1,2.7-4.1,3.9-5.5
			c0.3-0.3,0.5-0.6,0.7-0.8c0.2-0.2,0.3-0.3,0.3-0.3c0,0-0.1,0.1-0.2,0.1c-0.1,0.1-0.3,0.2-0.6,0.4c-0.3,0.2-2,1.1-4.4,1.1V70.1
			c-2.8,0-4.9,1.1-5.7,1.6c-1,0.6-1.9,1.2-2.5,1.8c-1.2,1-2.3,2.3-3.3,3.4c-2,2.3-4,5.2-5.7,8c-1.6,2.7-3.4,6.1-4.4,9.2
			c-0.4,1.3-1.2,4.3-0.3,7.7c0.5,2,1.8,4.4,4.2,6.2c2.4,1.8,5,2.2,6.9,2.2V89.8z"/>
	</g>
	<g>
		<path class="st1" d="M81.8,161.6c0-1.6-1.8-2.9-3-2.9c-0.8,0-0.4,1-1.8,2.6c-4.9,5.9-15.3,19.9-24.9,19.9
			c-14.5,0,4.9-38.6,10.3-38.6c4.4,0-0.2,14.7-4,17.9c-1,0.9-2.3,0.3-2.3,1.2c0,1.6,1.7,3.1,3.8,3.1c6.4,0,13-14.3,13-20.4
			c0-4.2-11.8-10.1-17.9-10.1c-9.1,0-19,27.1-21.5,38.4c-1.3,5.9,8.5,19.5,15.2,19.5C59.8,192.2,81.8,165.9,81.8,161.6z
			 M131.3,159.5c-0.9,0-1.6,0.7-1.6,1.6c0,5.1-15.5,5.7-15.5,5.7c2.3-10.1,2-16.9-0.9-24.5c-1.2-3.2-10.7-8-17.4-8
			c-7,0-14.5,14.9-10.8,26.5c-2.2-0.8-4.8-1.7-6.3-1.7c-0.9,0-1.4,0.2-1.6,0.8c-1.6,4.1-2.1,6-3.6,11.8c-2.3,9.4,4.6,20.5,14.3,20.5
			c15.4,0,23.5-17.8,23.5-17.8c12-1.9,22.8-7.2,22.8-11.9C134.3,160.9,133,159.5,131.3,159.5z M103.4,165.3c0,0-11.2-4-8.4-15.2
			c0.8-3.3,3.8-7.9,6.9-7.9C107.2,142.2,106.6,154.4,103.4,165.3z M91.1,180.9c-5.4,0-3.9-8.5-2.4-14c2.6,2.9,6.4,5.2,11.7,6.4
			C100.3,173.4,96,180.9,91.1,180.9z M170.9,159.3c-0.7,0-0.7,0.7-1.3,1.2c-0.9,0.9-5.7,2.9-9.2,2.9c-1.2,0-2.2-0.1-3-0.7
			c3.8-10.4,6.4-19.8,6.4-19.8c3.1-10.4,0.1-12.8-3.4-12.8c-11.9,0-18.9,25.4-12.5,35.5c-3.7,8.4-7.5,15.4-10.2,15.4
			c-4.4,0,4-33.3,4.4-35.5c1.1-4.4-7.7-10.1-11.3-10.1c-1.6,0-2.1,1.1-2.2,1.8c-0.4,1.7,1.3,2.2,0.4,5.9c-0.7,3.2-6.4,28-7.4,32.6
			c-1.3,5.5,11.2,16.3,17.4,16.3c5.1,0,10.9-10.8,15.5-22.2c9.2,1.7,18.5-4.9,18.5-8.1C173.1,160.9,171.9,159.3,170.9,159.3z
			 M223.4,159.4c-1.2,0-0.7,1.2-1.9,3.1c-3.7,6-11.5,18.6-14,18.6c-0.7,0-0.6-1.3,0-3.4c1.2-5.8,7.4-32.7,7.8-33.9
			c0.8-3.7,2.7-3.4,3-5.1c0.2-0.7,0.1-1.9-1.2-2.6c-0.9-0.4-2.3-0.7-4-0.7c-4.3,0-9.9,1.6-10.7,4.8c-0.1,0.2-0.2,0.8-0.3,1.6
			c-2.1-4.4-6-7.7-11.9-7.7c-11.2,0-19.6,20.6-23.3,36.5c-2.9,12.7,9.3,21.4,14.3,21.4c3,0,8-6.5,12.4-14.1v0.3
			c-0.1,0.1-0.1,0.1-0.1,0.2c-1.1,5.1,6,13.5,11.1,13.5c6.1,0,22.5-27,22.5-30.1C227.1,160.4,224.9,159.4,223.4,159.4z M183.2,181.2
			c-7.3,0,4.4-38.7,11.5-38.7C201.6,142.4,191.9,181.2,183.2,181.2z"/>
		<path class="st2" d="M77,161.3l-7.8-6.7l-0.1,0.1l-0.1,0.1L77,161.3z M58.5,160.4l-6.6-7.8l-0.1,0.1l-0.1,0.1L58.5,160.4z
			 M33.5,172.6l10,2.3l0,0l0,0L33.5,172.6z M92.1,161.6c0-4.7-2.6-8-4.5-9.7c-1.8-1.6-4.9-3.4-8.7-3.4V169c-1.5,0-2.5-0.4-3.2-0.6
			c-0.7-0.3-1.2-0.7-1.7-1.1c-0.7-0.6-2.4-2.5-2.4-5.7H92.1z M78.8,148.5c-1.2,0-2.8,0.2-4.4,0.9c-1.7,0.8-3,1.9-3.8,2.9
			c-0.8,1-1.3,1.9-1.5,2.3c-0.2,0.4-0.4,0.9-0.4,0.9c-0.1,0.2,0.2-0.4,0.6-1L84.8,168c0.8-1,1.5-1.9,2-2.9c0.5-0.9,0.8-1.6,0.8-1.8
			c0.1-0.2,0,0.1-0.2,0.3c-0.1,0.3-0.5,1-1.2,1.9c-0.8,0.9-1.9,1.9-3.5,2.6c-1.5,0.7-2.9,0.8-3.9,0.8V148.5z M69.2,154.8
			c-2.8,3.3-6,7.6-9.9,11.3c-1.9,1.8-3.6,3.2-5,4c-1.5,0.9-2.1,0.9-2,0.9v20.5c4.9,0,9.1-1.8,12.4-3.7c3.3-2,6.3-4.5,8.9-6.9
			c5-4.8,9.4-10.4,11.5-13L69.2,154.8z M52.2,170.9c0.7,0,2.6,0.4,4,2.2c1.1,1.4,1,2.4,0.9,1.7c-0.1-1.5,0.6-4.7,2.3-9.2
			c1.6-4.2,3.8-8.4,5.7-11.4c1-1.5,1.7-2.4,2.1-2.8c0.2-0.2,0.1,0-0.4,0.2c-0.3,0.2-1.9,1.2-4.4,1.2v-20.5c-3.2,0-5.6,1.3-6.7,2.1
			c-1.3,0.9-2.4,1.9-3.2,2.7c-1.7,1.7-3.2,3.8-4.6,5.9c-2.8,4.3-5.6,9.7-7.7,15.2c-2,5.2-3.9,11.6-3.6,17.4
			c0.1,2.9,0.8,6.9,3.6,10.4c3.1,3.9,7.6,5.5,11.9,5.5V170.9z M62.5,152.8c-1.2,0-2.6-0.3-4-1c-1.4-0.7-2.4-1.7-3.1-2.7
			c-1.2-1.7-1.3-3.2-1.3-3.3c0-0.3,0,0.2-0.4,1.8c-0.4,1.4-0.9,2.9-1.5,4.1c-0.3,0.6-0.5,1-0.7,1.2c-0.2,0.3-0.1,0.1,0.4-0.4
			l13.3,15.6c2.6-2.2,4.3-5.3,5.4-7.4c1.2-2.4,2.2-5.2,2.9-7.9c0.7-2.5,1.3-5.8,1-8.9c-0.1-1.5-0.6-4.2-2.4-6.7
			c-2.2-3.1-5.7-4.9-9.6-4.9V152.8z M51.7,152.8c2-1.8,4.4-2,3.4-1.8c-0.1,0-0.6,0.1-1.2,0.3c-0.6,0.2-1.7,0.5-2.9,1.3
			c-1.3,0.8-2.8,2.1-3.8,4c-1,1.9-1.3,3.7-1.3,5.1h20.5c0,1.2-0.2,2.8-1.2,4.6c-1,1.8-2.3,3-3.5,3.7c-1.1,0.7-2,0.9-2.4,1.1
			c-0.4,0.1-0.7,0.2-0.6,0.1c0,0,0,0,0.1,0c0,0,0.1,0,0.1,0c0.1,0,0.3,0,0.4-0.1c0.4-0.1,0.9-0.2,1.5-0.4c1.3-0.4,2.9-1.1,4.4-2.5
			L51.7,152.8z M45.9,161.6c0,4.4,2.3,7.9,4.7,9.9c2.5,2.1,5.8,3.4,9.3,3.4v-20.5c1.5,0,2.9,0.5,4,1.5c1,0.9,2.5,2.7,2.5,5.6H45.9z
			 M60,175c5.4,0,9.4-2.9,11.8-5.1c2.5-2.4,4.5-5.3,6.1-8c2.9-5.1,5.4-12,5.4-17.5H62.7c0-0.1,0,0.1-0.1,0.7
			c-0.1,0.5-0.3,1.2-0.5,1.9c-0.5,1.6-1.3,3.3-2.1,4.9c-0.9,1.6-1.7,2.7-2.3,3.2c-0.7,0.7,0.1-0.5,2.3-0.5V175z M83.2,144.3
			c0-5.5-3.5-9.2-5.1-10.8c-2.1-2-4.6-3.6-6.9-4.9c-4.4-2.4-10.6-4.7-16.1-4.7v20.5c0,0,0.2,0,0.6,0.1c0.4,0.1,1,0.2,1.7,0.4
			c1.3,0.4,2.8,1,4.1,1.7c1.4,0.7,2.2,1.4,2.5,1.7c0.2,0.1,0,0-0.3-0.5c-0.3-0.5-0.9-1.7-0.9-3.6H83.2z M55.1,124
			c-7.2,0-12.2,5-14.7,8.1c-3,3.6-5.6,8.2-7.7,12.6c-4.3,8.9-7.6,19.2-9.1,25.6l20,4.5c1.1-4.9,4-13.8,7.6-21.3
			c1.8-3.8,3.6-6.7,5-8.4c1.9-2.3,1.6-0.7-1.1-0.7V124z M23.5,170.4c-1,4.5,0.3,8.9,1.4,11.6c1.2,3.1,3.1,6.1,5.1,8.8
			c2,2.7,4.5,5.3,7.3,7.4c2.5,1.9,6.6,4.3,11.5,4.3v-20.5c0.5,0,0.8,0.1,1,0.1c0.2,0.1,0.3,0.1,0.4,0.1c0,0-0.2-0.1-0.6-0.4
			c-0.9-0.7-2-1.8-3.2-3.3c-1.1-1.5-1.9-3-2.4-4.1c-0.1-0.3-0.2-0.5-0.2-0.6c0-0.1,0-0.1,0-0.2c0,0,0,0,0,0c0,0,0,0,0,0c0,0,0,0,0,0
			c0,0,0,0,0,0c0,0,0,0,0,0c0,0,0,0,0,0.1c0,0.1,0,0.1,0,0.2c0,0.2,0,0.6-0.1,1.1L23.5,170.4z M48.7,202.4c6.1,0,11.9-3.3,15.7-6
			c4.3-3,8.6-6.9,12.3-10.8c3.7-3.9,7.1-7.9,9.7-11.4c1.3-1.7,2.4-3.5,3.3-5.1c0.4-0.8,0.9-1.8,1.3-2.8c0.3-0.8,0.9-2.6,0.9-4.7
			H71.6c0-0.9,0.1-1.6,0.2-1.9c0.1-0.4,0.2-0.6,0.2-0.7c0.1-0.2,0.1-0.1-0.1,0.2c-0.3,0.6-1,1.6-2,3c-1.9,2.6-4.7,6-7.9,9.2
			c-3.2,3.3-6.5,6.2-9.4,8.2c-3.4,2.4-4.6,2.3-4,2.3V202.4z M114.2,166.7l-10-2.3l-3,13l13.4-0.5L114.2,166.7z M113.3,142.2l9.6-3.6
			l0,0l0,0L113.3,142.2z M85.1,160.7l-3.4,9.7l19.5,6.8l-6.4-19.7L85.1,160.7z M77.2,159.9l9.6,3.6l0.3-0.8l0.2-0.8L77.2,159.9z
			 M73.6,171.6l-9.9-2.5l0,0l0,0L73.6,171.6z M111.5,174.4l-1.6-10.1l-5.4,0.9l-2.3,5L111.5,174.4z M103.4,165.3l-3.4,9.7l10.2,3.6
			l3.1-10.4L103.4,165.3z M95,150.1l9.9,2.5l0-0.1l0-0.1L95,150.1z M88.6,167l7.7-6.8l-12.7-14.3l-4.9,18.5L88.6,167z M100.3,173.4
			l8.9,5.1l6.8-11.9l-13.4-3.1L100.3,173.4z M131.3,149.3c-6.5,0-11.8,5.3-11.8,11.8h20.5c0,4.8-3.9,8.7-8.7,8.7V149.3z
			 M119.5,161.1c0-2.2,0.9-3.9,1.7-4.9c0.4-0.5,0.7-0.7,0.9-0.9c0.2-0.2,0.3-0.2,0.4-0.2c0,0-0.2,0.1-0.7,0.3
			c-0.5,0.2-1.1,0.3-1.8,0.5c-1.5,0.3-3,0.5-4.3,0.6c-0.6,0.1-1.1,0.1-1.4,0.1c-0.2,0-0.3,0-0.4,0c0,0-0.1,0-0.1,0c0,0,0,0,0,0
			c0,0,0,0,0,0c0,0,0,0,0,0c0,0,0,0,0,0c0,0,0,0,0.4,10.2c0.4,10.2,0.4,10.2,0.4,10.2c0,0,0,0,0,0c0,0,0,0,0,0c0,0,0,0,0,0
			c0,0,0,0,0.1,0c0,0,0.1,0,0.2,0c0.2,0,0.4,0,0.6,0c0.5,0,1.2-0.1,2.1-0.2c1.7-0.2,4-0.4,6.4-0.9c2.3-0.5,5.4-1.2,8.1-2.7
			c2.3-1.2,7.9-4.8,7.9-12.1H119.5z M124.1,169c2.7-11.7,2.4-20.5-1.3-30.4l-19.2,7.2c2,5.4,2.5,10.1,0.5,18.6L124.1,169z
			 M122.9,138.6c-1.3-3.5-4.1-5.9-5.6-7.1c-1.9-1.5-4-2.7-6.2-3.8c-4.2-2-9.8-3.8-15.2-3.8v20.5c0.6,0,1.5,0.1,2.8,0.4
			c1.2,0.3,2.5,0.8,3.6,1.4c1.2,0.6,2,1.1,2.5,1.4c0.2,0.2,0.2,0.2,0.1,0c-0.1-0.1-0.6-0.7-1.1-1.9L122.9,138.6z M95.8,124
			c-5.4,0-9.6,2.8-12.3,5.4c-2.8,2.7-5,6.1-6.5,9.6c-3,6.9-4.6,16.2-1.7,24.9l19.5-6.3c-0.9-2.9-0.6-6.9,1-10.3
			c0.7-1.7,1.5-2.7,2-3.2c0.6-0.6,0,0.4-2,0.4V124z M88.5,151.1c-1.1-0.4-2.5-0.9-4-1.3c-1.2-0.4-3.4-0.9-5.7-0.9v20.5
			c-0.5,0-0.8-0.1-0.6,0c0.1,0,0.3,0.1,0.7,0.2c0.8,0.2,1.7,0.5,2.9,0.9L88.5,151.1z M78.8,148.8c-1.1,0-3.2,0.1-5.5,1.2
			c-2.8,1.3-5.4,4-6.1,7.8l20.1,4c-0.3,1.4-0.9,2.9-2,4.2c-1,1.3-2.2,2-3.2,2.5c-1.7,0.8-3.2,0.8-3.3,0.8V148.8z M67.6,156.2
			c-1.7,4.6-2.4,6.9-3.9,12.9l19.9,5c1.4-5.5,1.8-7,3.2-10.6L67.6,156.2z M63.7,169.2c-1.9,7.8,0,15.9,4.1,22
			c4.1,6.1,11.2,11.3,20.2,11.3v-20.5c-0.7,0-2-0.4-3.2-2.2c-1.2-1.8-1.6-4-1.2-5.6L63.7,169.2z M88,202.4
			c11.9,0,20.4-6.9,25.2-12.3c2.5-2.8,4.4-5.6,5.6-7.6c0.6-1,1.1-1.9,1.4-2.6c0.2-0.3,0.3-0.6,0.4-0.8c0.1-0.1,0.1-0.2,0.1-0.3
			c0,0,0-0.1,0-0.1c0,0,0,0,0,0c0,0,0,0,0,0c0,0,0,0,0,0c0,0,0,0-9.3-4.3c-9.3-4.3-9.3-4.3-9.3-4.3c0,0,0,0,0,0c0,0,0,0,0,0
			c0,0,0,0,0,0c0,0,0,0,0,0c0,0,0,0,0,0c0,0.1-0.1,0.2-0.2,0.3c-0.2,0.3-0.4,0.8-0.8,1.4c-0.8,1.3-1.9,2.9-3.3,4.6
			c-3.1,3.4-6.4,5.4-9.9,5.4V202.4z M113.1,184.5c6.9-1.1,13.6-3.2,19-5.9c2.6-1.3,5.3-3.1,7.5-5.3c2-2,4.9-5.7,4.9-10.8H124
			c0-2.8,1.5-4.1,1.2-3.7c-0.2,0.2-0.9,0.8-2.5,1.6c-3.1,1.6-7.7,3.1-12.8,3.9L113.1,184.5z M144.5,162.5c0-7.1-5.6-13.2-13.2-13.2
			v20.5c-1.8,0-3.7-0.7-5.2-2.2c-1.4-1.5-2.1-3.3-2.1-5H144.5z M103.4,165.3c3.4-9.7,3.4-9.6,3.4-9.6c0,0,0,0,0,0c0,0,0,0,0,0
			c0,0,0,0,0,0c0,0,0,0,0.1,0c0,0,0.1,0,0.1,0c0,0,0,0,0,0c-0.1,0-0.2-0.1-0.4-0.2c-0.4-0.2-0.9-0.6-1.3-0.9
			c-0.4-0.3-0.5-0.6-0.5-0.7c0,0-0.2-0.4,0.1-1.4L85,147.6c-2.4,9.9,1.5,17.2,6,21.6c2.1,2,4.2,3.4,5.8,4.3c0.8,0.4,1.5,0.8,2,1
			c0.3,0.1,0.5,0.2,0.7,0.3c0.1,0,0.2,0.1,0.3,0.1c0,0,0.1,0,0.1,0c0,0,0,0,0,0c0,0,0,0,0,0c0,0,0,0,0,0
			C100,174.9,100,174.9,103.4,165.3z M104.9,152.4c0,0,0-0.1,0.2-0.5c0.1-0.3,0.3-0.5,0.4-0.7c0.1-0.2,0.1,0-0.4,0.3
			c-0.4,0.3-1.6,0.9-3.3,0.9V132c-6.4,0-10.6,4.3-12.3,6.6c-2.1,2.7-3.8,6-4.5,9.2L104.9,152.4z M101.8,152.5c-1.4,0-3-0.5-4.3-1.4
			c-1.2-0.9-1.8-1.8-2-2.2c-0.3-0.6-0.1-0.5,0,1.2c0.1,3-0.6,7.6-2,12.4l19.6,5.8c1.8-6.1,3-13,2.8-18.8c-0.1-2.8-0.5-6.4-2.1-9.6
			c-1.8-3.7-5.8-7.8-12.1-7.8V152.5z M91.1,170.7c0.7,0,1.8,0.1,3,0.8c1.2,0.6,2.1,1.5,2.7,2.3c1,1.4,0.8,2.4,0.8,1.8
			c0-0.4,0-1.2,0.2-2.4c0.2-1.1,0.5-2.4,0.8-3.6l-19.8-5.3c-0.7,2.8-1.9,7.6-1.7,12.1c0.1,2.2,0.5,5.7,2.7,8.9
			c2.6,3.9,6.8,5.9,11.4,5.9V170.7z M81,173.8c4.2,4.7,10.1,8,17,9.6l4.7-20c-3.5-0.8-5.4-2.2-6.3-3.3L81,173.8z M100.3,173.4
			c-8.9-5.1-8.9-5.1-8.9-5.1c0,0,0,0,0,0c0,0,0,0,0,0c0,0,0,0,0,0c0,0,0,0,0,0c0,0,0,0,0,0c0,0,0,0,0,0.1c-0.1,0.1-0.2,0.3-0.3,0.5
			c-0.3,0.5-0.7,1-1.2,1.5c-0.2,0.2-0.4,0.5-0.6,0.6c-0.1,0.1-0.2,0.1-0.2,0.2c0,0,0,0-0.1,0c0,0,0,0,0,0c0,0,0,0,0,0c0,0,0,0,0.1,0
			c0.1,0,0.2-0.1,0.4-0.1c0.3-0.1,0.9-0.3,1.6-0.3v20.5c3.9,0,7-1.5,9.1-2.8c2.1-1.4,3.8-3,5-4.4c1.2-1.4,2.2-2.7,2.9-3.7
			c0.3-0.5,0.6-0.9,0.8-1.2c0.1-0.2,0.2-0.3,0.2-0.4c0-0.1,0.1-0.1,0.1-0.1c0,0,0,0,0-0.1c0,0,0,0,0,0c0,0,0,0,0,0c0,0,0,0,0,0
			C109.2,178.5,109.2,178.5,100.3,173.4z M169.6,160.5l-6.6-7.9l-0.4,0.3l-0.3,0.3L169.6,160.5z M157.4,162.7l-9.6-3.5l-2.6,7.3
			l6.3,4.5L157.4,162.7z M163.8,143l-9.8-2.9l0,0.1l0,0.1L163.8,143z M147.9,165.7l9.4,4.1l2.1-4.9l-2.9-4.6L147.9,165.7z
			 M142.1,145.7l-9.9-2.5l-0.1,0.2l0,0.2L142.1,145.7z M128.5,137.3l9.9,2.6l0.1-0.5l0.1-0.5L128.5,137.3z M129,143.2l-10-2.4l0,0.2
			l0,0.2L129,143.2z M121.5,175.8l10,2.4l0-0.1l0-0.1L121.5,175.8z M154.5,170l1.8-10.1l-8.2-1.5l-3.1,7.7L154.5,170z M170.9,149.1
			c-2.1,0-4.2,0.6-6.2,1.9c-1.7,1.1-2.6,2.5-2.9,2.8c-0.9,1.2,0.1-0.3,1.1-1.1l13.1,15.7c1-0.8,1.6-1.6,2.1-2.2
			c0.2-0.3,0.4-0.5,0.4-0.6c0.1-0.2,0-0.1,0,0c-0.1,0.1-0.9,1.3-2.3,2.3c-0.8,0.5-1.7,1-2.7,1.3c-1,0.3-1.9,0.4-2.7,0.4V149.1z
			 M162.4,153.3c0.4-0.4,0.7-0.6,0.9-0.8c0.2-0.1,0.3-0.2,0.4-0.3c0.1-0.1,0.2-0.1,0.1,0c-0.2,0.1-0.6,0.3-1.1,0.5
			c-0.5,0.2-1,0.3-1.5,0.4c-0.5,0.1-0.7,0.1-0.7,0.1v20.5c3.4,0,6.7-0.9,9-1.7c1.2-0.4,2.4-0.9,3.5-1.4c0.7-0.3,2.5-1.3,4-2.8
			L162.4,153.3z M160.4,153.2c-0.4,0-0.2,0,0.3,0.1c0.5,0.1,1.6,0.4,2.7,1.2l-11.9,16.7c3.6,2.6,7.6,2.6,9,2.6V153.2z M167,166.2
			c2-5.4,3.6-10.5,4.8-14.2c0.6-1.9,1-3.4,1.4-4.5c0.2-0.5,0.3-1,0.4-1.3c0-0.1,0.1-0.3,0.1-0.3c0,0,0-0.1,0-0.1c0,0,0,0,0,0
			c0,0,0,0,0,0c0,0,0,0,0,0c0,0,0,0,0,0c0,0,0,0-9.9-2.8c-9.9-2.8-9.9-2.8-9.9-2.8v0c0,0,0,0,0,0c0,0,0,0,0,0c0,0,0,0,0,0
			c0,0,0,0,0,0.1c0,0.1,0,0.2-0.1,0.3c-0.1,0.3-0.2,0.6-0.3,1.1c-0.3,1-0.7,2.4-1.3,4.2c-1.1,3.5-2.7,8.3-4.5,13.4L167,166.2z
			 M173.7,145.9c1.7-5.6,2.7-11.9,0.4-17.2c-1.3-3.1-3.6-5.5-6.4-7c-2.7-1.4-5.3-1.7-7.2-1.7v20.5c-0.1,0-1.1,0-2.3-0.6
			c-1.4-0.7-2.4-1.9-2.9-3.1c-0.4-1-0.3-1.4-0.3-0.7c0,0.7-0.2,2-0.9,4.1L173.7,145.9z M160.4,120c-6.9,0-12.2,3.7-15.6,7.6
			c-3.4,3.9-5.8,8.7-7.3,13.5c-1.5,4.8-2.4,10-2.3,15c0.1,4.8,1,10.4,3.9,15.1l17.4-10.9c-0.2-0.3-0.8-1.7-0.8-4.5
			c0-2.6,0.4-5.6,1.3-8.5c0.9-2.9,2.1-5,3.2-6.2c1.1-1.2,1.1-0.6,0.2-0.6V120z M138.5,161.7c-1.8,4.1-3.4,7.4-4.8,9.5
			c-0.7,1.1-1.1,1.5-1.1,1.5c0,0,0.4-0.4,1-0.7c0.7-0.4,2.1-1,4-1v20.5c4.9,0,8.2-3,9.4-4.2c1.6-1.6,2.9-3.5,4-5.2
			c2.2-3.5,4.3-7.9,6.2-12.3L138.5,161.7z M137.6,170.9c3.5,0,6.2,1.9,7.5,3.8c1.1,1.5,1.4,2.8,1.4,2.9c0.1,0.5,0,0.2,0.1-1.1
			c0.1-2.5,0.7-6.1,1.5-10.4c0.8-4.1,1.7-8.3,2.5-11.7c0.7-3,1.4-6,1.6-6.8l-20.1-4c0,0,0,0-0.1,0.5c-0.1,0.3-0.2,0.8-0.3,1.4
			c-0.3,1.1-0.6,2.6-1,4.4c-0.8,3.5-1.8,8-2.6,12.5c-0.8,4.4-1.6,9.2-1.8,13c-0.1,1.8-0.1,4.2,0.3,6.5c0.2,1.1,0.8,3.1,2.2,5.1
			c1.7,2.3,4.8,4.5,8.9,4.5V170.9z M152,148.1c1.2-4.9-0.5-9-2-11.4c-1.6-2.5-3.6-4.5-5.4-5.9c-1.9-1.5-4-2.8-6.1-3.7
			c-1.8-0.8-4.6-1.9-7.7-1.9v20.5c-0.4,0-0.7,0-0.9-0.1c-0.2,0-0.3-0.1-0.3-0.1c0,0,0.1,0,0.4,0.2c0.6,0.3,1.3,0.7,1.9,1.2
			c0.3,0.2,0.5,0.4,0.7,0.6c0.1,0.2,0.1,0.2,0.1,0.1c-0.1-0.1-0.3-0.5-0.5-1.3c-0.2-0.8-0.3-1.9,0-3.2L152,148.1z M130.8,125.3
			c-3.5,0-6.7,1.4-9,3.8c-2.1,2.1-3,4.6-3.3,6.6l20.2,3.4c-0.2,1.3-0.8,2.9-2.2,4.3c-1.6,1.7-3.8,2.5-5.7,2.5V125.3z M118.6,134.7
			c-0.3,1.1-0.4,2.3-0.4,3.5c0,1.2,0.2,2.1,0.4,2.9c0.2,0.7,0.4,1.3,0.5,1.5c0,0.1,0,0.1,0.1,0.2c0,0,0,0.1,0,0.1c0,0.1,0,0.1,0,0
			c-0.1-0.2-0.2-0.7-0.2-1.3c0-0.6,0-0.9,0-0.8l19.9,4.8c0.4-1.7,0.6-3.5,0.5-5.2c-0.1-1.8-0.5-3.2-0.8-4.2
			c-0.1-0.2-0.1-0.4-0.2-0.6c0-0.1,0-0.1-0.1-0.2c0,0,0-0.1,0-0.1c0-0.1,0,0.1,0.1,0.5c0.1,0.4,0.2,1,0.3,1.8c0,0.8-0.1,1.6-0.3,2.3
			L118.6,134.7z M119,141.1c-0.7,3.6-6.2,27-7.4,32.6l20,4.3c0.8-3.8,6.9-29.9,7.5-32.7L119,141.1z M111.6,173.5
			c-1.3,5.4,1,10.1,2.5,12.6c1.7,2.9,4.1,5.5,6.5,7.6c2.4,2.2,5.2,4.2,8,5.7c2.6,1.4,6.3,3,10.4,3v-20.5c0.6,0,0.9,0.1,0.6,0
			c-0.2-0.1-0.7-0.2-1.3-0.6c-1.2-0.7-2.7-1.7-4-2.9c-1.4-1.2-2.3-2.4-2.7-3.1c-0.2-0.3-0.1-0.3-0.1,0c0.1,0.3,0.3,1.4,0,2.8
			L111.6,173.5z M139,202.4c4.9,0,8.6-2.5,10.7-4.5c2.3-2,4.2-4.6,5.8-7c3.2-4.9,6.1-11.2,8.5-17.1l-19-7.7
			c-2.2,5.5-4.6,10.4-6.7,13.7c-1.1,1.7-1.9,2.5-2.2,2.9c-0.5,0.4,0.5-0.7,2.9-0.7V202.4z M152.7,180c7.4,1.3,14.4-0.6,19.3-3.2
			c2.5-1.3,4.9-3,6.8-4.9c0.9-1,2-2.2,2.8-3.6c0.8-1.4,1.7-3.6,1.7-6.4h-20.5c0-2,0.7-3.3,0.9-3.7c0.3-0.5,0.5-0.7,0.4-0.6
			c-0.1,0.1-0.7,0.6-1.7,1.1c-2,1.1-4.3,1.5-6.1,1.2L152.7,180z M183.3,161.9c0-3.6-1.7-6.4-2.9-8c-1-1.2-4.1-4.8-9.5-4.8v20.5
			c-2.4,0-4.1-0.9-4.9-1.4c-0.9-0.6-1.4-1.2-1.7-1.6c-0.3-0.4-0.6-0.9-0.9-1.5c-0.2-0.5-0.6-1.6-0.6-3.1H183.3z M221.5,162.5
			l-8.6-5.6l-0.1,0.1l-0.1,0.1L221.5,162.5z M207.5,177.7l9.9,2.6l0.1-0.2l0.1-0.2L207.5,177.7z M215.3,143.9l9.8,2.9l0.1-0.4
			l0.1-0.4L215.3,143.9z M218.3,138.8l-9.7-3.2l-0.2,0.6l-0.1,0.6L218.3,138.8z M217,136.2l-4.6,9.2l0,0L217,136.2z M202.4,140.3
			l9.2,4.6l0.5-1l0.3-1.1L202.4,140.3z M202.1,141.9l-9.3,4.4l14.6,30.7l4.8-33.7L202.1,141.9z M166.9,170.7l-10-2.3l0,0l0,0
			L166.9,170.7z M193.6,178.1h10.2v-37.6l-19.1,32.4L193.6,178.1z M193.6,178.4l7.2,7.2l3-3v-4.2H193.6z M193.5,178.6l10,2.2
			l0.2-1.1v-1.1H193.5z M223.4,149.2c-2.1,0-5.4,0.6-8,3.4c-2,2.1-2.7,4.5-2.7,4.7c-0.3,1.1-0.1,0.2,0.2-0.3l17.2,11.1
			c1.6-2.4,2.1-4.9,2.1-4.8c0,0-0.1,0.4-0.4,0.9c-0.3,0.6-0.8,1.5-1.7,2.5c-1,1.1-2.3,1.9-3.7,2.4c-1.3,0.5-2.4,0.5-3.1,0.5V149.2z
			 M212.7,157.2c-1.8,3-4.6,7.4-7.1,11c-1.3,1.9-2.4,3.2-3.1,4.1c-0.4,0.4-0.4,0.4-0.2,0.3c0.1-0.1,0.5-0.4,1.2-0.7
			c0.6-0.3,2-0.9,4-0.9v20.5c4,0,6.8-2.2,7.5-2.7c1.1-0.9,2.1-1.9,2.9-2.8c1.5-1.7,3.1-3.9,4.6-6c2.9-4.2,6-9.1,7.8-12.1
			L212.7,157.2z M207.5,170.9c1.7,0,3.7,0.5,5.5,1.7c1.8,1.2,2.8,2.7,3.4,3.9c1,2,0.9,3.7,0.9,3.9c0,0.7-0.1,0.8,0.1-0.1l-19.8-5.2
			c-0.3,1.2-0.7,3-0.8,4.9c0,0.8,0,3,1.1,5.3c0.6,1.3,1.7,3,3.6,4.3c2,1.3,4.1,1.8,6,1.8V170.9z M217.5,179.8
			c0.6-2.8,2.4-10.9,4.2-18.5c0.9-3.8,1.7-7.4,2.4-10.2c0.7-3.1,1.1-4.5,1-4.3l-19.6-5.9c-0.5,1.6-6.8,29-8,34.7L217.5,179.8z
			 M225.3,146c0-0.1-0.1,0.3-0.3,0.8c-0.3,0.5-0.6,0.9-0.8,1c0,0,0,0,0,0c0,0,0,0,0.1-0.1c0,0,0.1-0.1,0.1-0.1
			c0.2-0.2,0.6-0.6,1.1-1.1c0.5-0.6,1.1-1.4,1.6-2.4c0.6-1,1-2.2,1.2-3.3l-20.1-4c0.2-0.8,0.4-1.5,0.8-2.2c0.4-0.7,0.8-1.2,1-1.5
			c0.2-0.3,0.4-0.4,0.3-0.3c0,0-0.4,0.3-0.7,0.6c-0.7,0.7-1.7,1.9-2.6,3.4c-0.9,1.5-1.5,3.2-1.8,5L225.3,146z M228,142
			c1.5-4.6,0.4-11.6-6.4-15l-9.2,18.3c-1.7-0.8-3.2-2.4-3.9-4.5c-0.6-1.8-0.6-3.7,0-5.4L228,142z M221.6,127.1
			c-3.1-1.5-6.4-1.7-8.6-1.7v20.5c0.2,0,0.3,0,0.5,0c0.1,0,0.1,0,0.1,0c0,0,0,0,0,0c0,0,0,0-0.1,0c0,0-0.1,0-0.2-0.1
			c-0.2,0-0.5-0.2-1-0.4L221.6,127.1z M213.1,125.3c-3.2,0-7,0.5-10.4,1.9c-2.8,1.1-8.6,4-10.2,10.7l19.9,4.8
			c-0.4,1.8-1.4,2.9-1.9,3.3c-0.4,0.4-0.6,0.4-0.3,0.3c0.3-0.1,0.7-0.2,1.3-0.3c0.6-0.1,1.2-0.1,1.6-0.1V125.3z M193.2,135.7
			c-0.7,1.4-1,2.8-1,3c-0.1,0.6-0.2,1.2-0.3,1.6l20.3,2.9c0-0.3,0.1-0.4,0-0.3c0,0,0,0.2-0.1,0.4c0,0.1-0.1,0.3-0.2,0.5
			c-0.1,0.2-0.2,0.6-0.4,1L193.2,135.7z M211.3,137.5c-3.5-7.4-10.7-13.5-21.1-13.5v20.5c1,0,1.4,0.2,1.5,0.4
			c0.2,0.2,0.7,0.6,1.1,1.5L211.3,137.5z M190.2,124c-6.1,0-11.1,2.9-14.7,6.1c-3.6,3.2-6.4,7.4-8.7,11.5
			c-4.6,8.3-7.9,18.4-9.9,26.9l20,4.6c1.7-7.4,4.5-15.5,7.8-21.5c1.7-3,3.3-5,4.5-6.2c1.2-1.1,1.5-0.8,1-0.8V124z M156.9,168.5
			c-2.4,10.3,1.6,18.9,6.5,24.5c2.4,2.8,5.2,5,8,6.6c2.5,1.4,6,2.9,9.8,2.9v-20.5c0.8,0,1.2,0.2,1,0.1c-0.1,0-0.3-0.1-0.7-0.3
			c-0.8-0.5-1.8-1.2-2.7-2.2c-1.7-2-2.4-4.1-1.9-6.4L156.9,168.5z M181.2,202.4c4.2,0,7.3-2.1,8.8-3.2c1.8-1.4,3.4-3,4.7-4.6
			c2.7-3.2,5.4-7.3,7.8-11.3l-17.7-10.4c-2.1,3.5-4.1,6.5-5.8,8.5c-0.8,1-1.3,1.4-1.5,1.5c-0.1,0,0.2-0.1,0.7-0.4
			c0.5-0.2,1.5-0.6,3-0.6V202.4z M183.4,178.1v0.3h20.5v-0.3H183.4z M186.4,171.1c0,0-0.1,0.1-0.1,0.1c-0.1,0.1-0.2,0.2-0.3,0.3
			c-0.3,0.3-1,1.1-1.6,2.3c-0.7,1.4-1,2.7-1,3.6c0,0.4,0,0.7-0.1,0.8c0,0.1,0,0.1,0,0.2c0,0,0,0.1,0,0.1h20.5c0-0.2,0,0.3,0,1
			c-0.1,0.9-0.3,2.1-1,3.5c-0.6,1.2-1.3,2-1.5,2.2c-0.2,0.2-0.4,0.4-0.3,0.3L186.4,171.1z M183.5,176.4c-0.9,4,0,7.6,1,10.2
			c1.1,2.7,2.6,5.2,4.3,7.2c1.7,2.1,3.8,4,6.2,5.6c2.3,1.4,5.6,3,9.5,3v-20.5c0.8,0,1.3,0.2,1.4,0.2c0.2,0.1,0.2,0.1,0,0
			c-0.1-0.1-0.4-0.3-0.6-0.5c-0.3-0.2-0.5-0.5-0.8-0.9c-0.3-0.3-0.5-0.6-0.7-0.9c-0.2-0.3-0.3-0.5-0.3-0.7c-0.1-0.1,0-0.1,0,0.1
			c0,0.2,0.1,0.8-0.1,1.5L183.5,176.4z M204.6,202.4c4.1,0,7.3-2,8.7-3.1c1.8-1.3,3.5-2.9,4.9-4.4c2.9-3.1,5.8-7,8.4-10.8
			c2.6-3.8,5-7.8,6.8-11c0.9-1.6,1.7-3.2,2.3-4.6c0.3-0.7,0.6-1.5,0.9-2.3c0.2-0.5,0.7-2.1,0.7-4.1h-20.5c0-0.9,0.1-1.6,0.2-1.8
			c0.1-0.3,0.1-0.5,0.1-0.5c0-0.1,0,0-0.2,0.4c-0.3,0.7-0.8,1.7-1.6,3c-1.5,2.7-3.5,6-5.8,9.4c-2.3,3.4-4.6,6.4-6.5,8.4
			c-1,1-1.6,1.6-1.9,1.8c-0.6,0.4,0.7-0.8,3.3-0.8V202.4z M237.4,162.1c0-5.9-4-9.3-6.2-10.7c-2.4-1.4-5.2-2.2-7.8-2.2v20.5
			c-1.1,0-2-0.3-2.9-0.8c-0.8-0.5-3.6-2.6-3.6-6.8H237.4z M183.2,170.9c2,0,4.1,0.8,5.7,2.2c1.4,1.3,1.9,2.6,2.1,3
			c0.3,0.8,0.1,0.9,0.2-0.5c0.1-2.5,0.9-6.4,2.2-10.9c1.3-4.4,3-8.5,4.5-11.3c0.8-1.5,1.3-2.1,1.5-2.3c0.5-0.6-1.1,1.6-4.7,1.6
			v-20.5c-5.4,0-8.9,3.4-10.3,4.9c-1.8,1.9-3.3,4.3-4.5,6.5c-2.4,4.4-4.6,10-6.2,15.3c-1.6,5.2-2.8,11-3.1,15.8
			c-0.1,2.2-0.1,5.3,0.9,8.2c0.5,1.5,1.5,3.7,3.6,5.5c2.2,2,5.1,3.1,8,3.1V170.9z M194.7,152.7c-5.5,0-7.6-4.5-7.8-5.2
			c-0.2-0.7-0.1-0.7-0.1,0.7c-0.1,2.5-0.7,6.5-1.9,10.8c-1.2,4.4-2.7,8.4-4.2,11c-0.4,0.6-0.7,1.1-0.9,1.5c-0.1,0.2-0.2,0.3-0.3,0.4
			c0,0-0.1,0.1-0.1,0.1c0,0,0,0,0,0c0,0,0,0,0,0c0,0,0,0,0,0c0,0,0,0,0,0c0,0,0.1-0.1,0.1-0.1c0.1-0.1,0.3-0.2,0.6-0.4
			c0.6-0.3,1.7-0.7,3.1-0.7v20.5c5,0,8.5-2.7,10.4-4.6c2.1-2,3.7-4.5,4.9-6.7c2.6-4.6,4.6-10.3,6.1-15.6c1.5-5.3,2.5-11,2.6-15.8
			c0.1-2.2-0.1-5.2-1.1-8c-1-2.8-4.3-8.5-11.5-8.5V152.7z"/>
	</g>
	<g>
		<path class="st1" d="M81.8,161.6c0-1.6-1.8-2.9-3-2.9c-0.8,0-0.4,1-1.8,2.6c-4.9,5.9-15.3,19.9-24.9,19.9
			c-14.5,0,4.9-38.6,10.3-38.6c4.4,0-0.2,14.7-4,17.9c-1,0.9-2.3,0.3-2.3,1.2c0,1.6,1.7,3.1,3.8,3.1c6.4,0,13-14.3,13-20.4
			c0-4.2-11.8-10.1-17.9-10.1c-9.1,0-19,27.1-21.5,38.4c-1.3,5.9,8.5,19.5,15.2,19.5C59.8,192.2,81.8,165.9,81.8,161.6z
			 M131.3,159.5c-0.9,0-1.6,0.7-1.6,1.6c0,5.1-15.5,5.7-15.5,5.7c2.3-10.1,2-16.9-0.9-24.5c-1.2-3.2-10.7-8-17.4-8
			c-7,0-14.5,14.9-10.8,26.5c-2.2-0.8-4.8-1.7-6.3-1.7c-0.9,0-1.4,0.2-1.6,0.8c-1.6,4.1-2.1,6-3.6,11.8c-2.3,9.4,4.6,20.5,14.3,20.5
			c15.4,0,23.5-17.8,23.5-17.8c12-1.9,22.8-7.2,22.8-11.9C134.3,160.9,133,159.5,131.3,159.5z M103.4,165.3c0,0-11.2-4-8.4-15.2
			c0.8-3.3,3.8-7.9,6.9-7.9C107.2,142.2,106.6,154.4,103.4,165.3z M91.1,180.9c-5.4,0-3.9-8.5-2.4-14c2.6,2.9,6.4,5.2,11.7,6.4
			C100.3,173.4,96,180.9,91.1,180.9z M170.9,159.3c-0.7,0-0.7,0.7-1.3,1.2c-0.9,0.9-5.7,2.9-9.2,2.9c-1.2,0-2.2-0.1-3-0.7
			c3.8-10.4,6.4-19.8,6.4-19.8c3.1-10.4,0.1-12.8-3.4-12.8c-11.9,0-18.9,25.4-12.5,35.5c-3.7,8.4-7.5,15.4-10.2,15.4
			c-4.4,0,4-33.3,4.4-35.5c1.1-4.4-7.7-10.1-11.3-10.1c-1.6,0-2.1,1.1-2.2,1.8c-0.4,1.7,1.3,2.2,0.4,5.9c-0.7,3.2-6.4,28-7.4,32.6
			c-1.3,5.5,11.2,16.3,17.4,16.3c5.1,0,10.9-10.8,15.5-22.2c9.2,1.7,18.5-4.9,18.5-8.1C173.1,160.9,171.9,159.3,170.9,159.3z
			 M223.4,159.4c-1.2,0-0.7,1.2-1.9,3.1c-3.7,6-11.5,18.6-14,18.6c-0.7,0-0.6-1.3,0-3.4c1.2-5.8,7.4-32.7,7.8-33.9
			c0.8-3.7,2.7-3.4,3-5.1c0.2-0.7,0.1-1.9-1.2-2.6c-0.9-0.4-2.3-0.7-4-0.7c-4.3,0-9.9,1.6-10.7,4.8c-0.1,0.2-0.2,0.8-0.3,1.6
			c-2.1-4.4-6-7.7-11.9-7.7c-11.2,0-19.6,20.6-23.3,36.5c-2.9,12.7,9.3,21.4,14.3,21.4c3,0,8-6.5,12.4-14.1v0.3
			c-0.1,0.1-0.1,0.1-0.1,0.2c-1.1,5.1,6,13.5,11.1,13.5c6.1,0,22.5-27,22.5-30.1C227.1,160.4,224.9,159.4,223.4,159.4z M183.2,181.2
			c-7.3,0,4.4-38.7,11.5-38.7C201.6,142.4,191.9,181.2,183.2,181.2z"/>
	</g>
	<g>
		<path class="st1" d="M99.9,97.1c-0.7,0-0.7,0.7-1.3,1.2c-0.9,0.9-5.7,2.9-9.2,2.9c-1.2,0-2.2-0.1-3-0.7
			c3.8-10.4,6.4-19.8,6.4-19.8c3.1-10.4,0.1-12.8-3.4-12.8c-11.9,0-18.9,25.4-12.5,35.5C73.1,112,69.3,119,66.6,119
			c-4.4,0,4-33.3,4.4-35.5c1.1-4.4-7.7-10.1-11.3-10.1c-1.6,0-2.1,1.1-2.2,1.8c-0.4,1.7,1.3,2.2,0.4,5.9c-0.7,3.2-6.4,28-7.4,32.6
			c-1.3,5.5,11.2,16.3,17.4,16.3c5.1,0,10.9-10.8,15.5-22.2c9.2,1.7,18.5-4.9,18.5-8.1C102,98.7,100.9,97.1,99.9,97.1z M110.6,67.1
			h5c1.6,0,3-1,3.4-2.4l3.4-10.3c0.7-2.1-0.7-4.1-2.9-4.1h-8.2c-1.9,0-3.6,1.7-3.7,3.6L107.5,64C107.5,65.7,108.8,67.1,110.6,67.1z
			 M124.1,97.3c-1.3,0-0.7,1.2-1.9,3.1c-3.7,6-11.7,18.6-14,18.6c-0.8,0-0.6-1.3-0.1-3.4c1.1-4.9,7.4-32,7.4-32.1
			c1-4.4-7.7-10.1-11.3-10.1c-1.7,0-2.2,1.1-2.3,1.8c-0.3,1.7,1.3,2.2,0.6,5.9l-0.7,2.9c0,0-6.5,28.3-7.5,32.5
			c-1.1,5.1,6,13.5,11.1,13.5c6.1,0,22.4-27,22.4-30.1C127.8,98.3,125.7,97.3,124.1,97.3z M148,97.3c-1.3,0-0.7,1.2-1.9,3.1
			c-3.7,6-11.7,18.6-14,18.6c-0.8,0-0.6-1.3-0.1-3.4c1.1-4.8,11.7-50.4,11.7-50.5c1.1-4.4-7.7-10.2-11.3-10.2
			c-1.6,0-2.1,1.1-2.2,1.9c-0.4,1.6,1.3,2.2,0.4,5.9c-0.2,0.9-11.3,49.3-12.4,53.8c-1.1,5.1,6,13.5,11.1,13.5
			c6.1,0,22.4-27,22.4-30.1C151.6,98.3,149.5,97.3,148,97.3z M172.3,97.3c-1.3,0-0.7,1.2-1.9,3.1c-3.7,6-11.7,18.6-14,18.6
			c-0.8,0-0.6-1.3-0.1-3.4c1.1-4.8,11.7-50.4,11.7-50.5c1.1-4.4-7.7-10.2-11.3-10.2c-1.6,0-2.1,1.1-2.2,1.9
			c-0.4,1.6,1.3,2.2,0.4,5.9c-0.2,0.9-11.3,49.3-12.4,53.8c-1.1,5.1,6,13.5,11.1,13.5c6.1,0,22.4-27,22.4-30.1
			C175.9,98.3,173.8,97.3,172.3,97.3z M212.9,96.6c-0.8,0-0.4,1-1.8,2.6c-4.9,5.9-15.3,19.9-24.9,19.9c-6.2,0-6.2-7.1-3.8-15.2
			c2.6,0.8,6.1,1.1,7.4,1.1c6.3,0,17.1-16.6,17.1-22.8c0-4.2-11.8-10.1-17.9-10.1c-9.1,0-19,27.1-21.5,38.4
			c-1.3,5.9,8.5,19.5,15.2,19.5c11.1,0,33.1-26.3,33.1-30.5C215.8,97.9,214.1,96.6,212.9,96.6z M196.5,80.4
			c4.4,0-4.9,19.6-10.8,19.6C180.4,100,193.6,80.4,196.5,80.4z"/>
	</g>
</g>
</svg>
